<?xml version="1.0" standalone="no"?>
<!DOCTYPE svg PUBLIC "-//W3C//DTD SVG 20010904//EN"
 "http://www.w3.org/TR/2001/REC-SVG-20010904/DTD/svg10.dtd">
<svg version="1.0" xmlns="http://www.w3.org/2000/svg"
 width="78.000000pt" height="121.000000pt" viewBox="0 0 78.000000 121.000000"
 preserveAspectRatio="xMidYMid meet">

<g transform="translate(0.000000,121.000000) scale(0.100000,-0.100000)"
fill="#000000" stroke="none">
<path d="M292 973 c-78 -69 -105 -119 -105 -193 -1 -194 228 -301 379 -177 46
38 84 118 84 177 0 58 -38 139 -79 171 -17 13 -45 36 -62 52 -30 27 -59 36
-59 17 0 -5 -7 -10 -15 -10 -8 0 -15 -4 -15 -10 0 -5 7 -10 15 -10 8 0 15 -4
15 -10 0 -5 -7 -10 -15 -10 -8 0 -15 -4 -15 -10 0 -5 7 -10 15 -10 8 0 15 -4
15 -10 0 -14 26 -13 50 2 16 10 23 10 37 -4 16 -16 14 -21 -24 -75 -75 -108
-116 -109 -189 -7 -46 64 -47 67 -29 81 11 7 26 11 35 7 48 -20 50 -19 50 35
0 34 -4 51 -12 51 -7 0 -41 -26 -76 -57z m-4 -149 c30 -53 48 -100 69 -184 7
-30 13 -35 42 -38 65 -7 78 2 85 60 7 52 81 218 97 218 12 0 26 -30 34 -71 15
-79 -39 -174 -120 -210 -130 -59 -275 36 -275 180 0 47 16 101 29 101 4 0 21
-25 39 -56z m140 -157 c12 -3 11 -5 -5 -6 -21 -1 -23 3 -21 42 l1 42 4 -37 c3
-24 10 -38 21 -41z"/>
<path d="M387 882 c-22 -24 -21 -45 1 -65 24 -22 38 -21 62 3 21 21 18 46 -8
68 -22 17 -36 15 -55 -6z"/>
<path d="M330 411 l0 -71 41 0 c24 0 38 4 34 10 -3 6 -15 10 -25 10 -16 0 -19
9 -22 57 -2 34 -8 58 -15 61 -10 3 -13 -15 -13 -67z"/>
<path d="M430 410 c0 -40 4 -70 10 -70 6 0 10 13 10 29 0 24 5 30 30 35 23 4
30 11 30 29 0 31 -18 47 -52 47 -28 0 -28 0 -28 -70z m55 30 c0 -8 -8 -16 -17
-18 -13 -2 -18 3 -18 18 0 15 5 20 18 18 9 -2 17 -10 17 -18z"/>
<path d="M421 188 c1 -29 4 -43 6 -31 3 15 13 23 31 25 21 2 27 8 27 28 0 21
-5 26 -32 28 l-33 3 1 -53z m57 25 c5 -17 -26 -29 -40 -15 -6 6 -7 15 -3 22 9
14 37 9 43 -7z"/>
<path d="M340 185 c0 -44 0 -45 33 -44 23 1 26 3 10 6 -19 4 -23 11 -23 44 0
21 -4 39 -10 39 -5 0 -10 -20 -10 -45z"/>
</g>
</svg>
