<?xml version="1.0" standalone="no"?>
<!DOCTYPE svg PUBLIC "-//W3C//DTD SVG 20010904//EN"
 "http://www.w3.org/TR/2001/REC-SVG-20010904/DTD/svg10.dtd">
<svg version="1.0" xmlns="http://www.w3.org/2000/svg"
 width="78.000000pt" height="199.000000pt" viewBox="0 0 78.000000 199.000000"
 preserveAspectRatio="xMidYMid meet">

<g transform="translate(0.000000,199.000000) scale(0.100000,-0.100000)"
fill="#000000" stroke="none">
<path d="M397 1805 c-58 -47 -124 -143 -146 -212 -21 -65 -10 -187 23 -252 15
-28 25 -55 24 -59 -2 -4 11 -22 28 -40 l31 -33 -1 37 c-1 37 0 38 42 46 46 8
174 84 204 122 30 37 23 66 -21 83 -37 14 -38 16 -27 44 13 37 -1 63 -37 67
-24 3 -26 1 -20 -30 4 -27 -1 -41 -22 -66 -15 -18 -34 -32 -44 -32 -9 0 -32
-13 -51 -30 -19 -16 -43 -29 -53 -30 -17 0 -19 8 -15 98 4 113 28 178 104 275
25 31 43 57 41 57 -3 0 -30 -20 -60 -45z m157 -321 c3 -9 6 -25 6 -36 0 -25
-74 -98 -99 -98 -10 0 -37 -13 -61 -29 -24 -16 -49 -27 -56 -24 -6 2 -15 25
-19 50 -7 48 2 63 37 63 26 0 59 17 108 54 50 38 75 44 84 20z"/>
<path d="M198 751 c11 -6 13 -37 10 -135 -3 -119 -2 -126 16 -126 16 0 17 3 8
12 -8 8 -12 50 -12 125 0 96 2 113 18 122 14 9 11 10 -18 11 -23 0 -30 -3 -22
-9z"/>
<path d="M438 748 c17 -17 17 -229 0 -246 -9 -9 -8 -12 8 -12 18 0 19 7 16
129 l-2 130 47 4 c42 3 40 4 -16 5 -51 2 -62 -1 -53 -10z"/>
<path d="M567 719 c4 -13 8 -18 11 -10 2 7 -1 18 -6 23 -8 8 -9 4 -5 -13z"/>
<path d="M571 678 c0 -9 -11 -24 -23 -32 -17 -12 -18 -16 -6 -16 22 0 41 25
35 47 -4 16 -5 16 -6 1z"/>
<path d="M355 500 c-3 -5 1 -10 9 -10 9 0 16 5 16 10 0 6 -4 10 -9 10 -6 0
-13 -4 -16 -10z"/>
</g>
</svg>
